<?xml version="1.0" standalone="no"?>
<!DOCTYPE svg PUBLIC "-//W3C//DTD SVG 20010904//EN"
 "http://www.w3.org/TR/2001/REC-SVG-20010904/DTD/svg10.dtd">
<svg version="1.0" xmlns="http://www.w3.org/2000/svg"
 width="640.000000pt" height="640.000000pt" viewBox="0 0 640.000000 640.000000"
 preserveAspectRatio="xMidYMid meet">
<metadata>
Created by potrace 1.15, written by Peter Selinger 2001-2017
</metadata>
<g transform="translate(0.000000,640.000000) scale(0.100000,-0.100000)"
fill="#000000" stroke="none">
<path d="M2818 5535 c-75 -13 -163 -31 -195 -40 -140 -39 -201 -58 -248 -77
-131 -53 -155 -63 -220 -96 -38 -19 -98 -50 -133 -71 -82 -47 -89 -51 -141
-86 -24 -17 -51 -34 -60 -40 -9 -5 -18 -13 -21 -16 -3 -3 -31 -25 -62 -48 -32
-24 -58 -47 -58 -52 0 -5 -5 -9 -10 -9 -12 0 -69 -52 -158 -144 -37 -38 -77
-79 -89 -91 -13 -12 -23 -27 -23 -34 0 -6 -4 -11 -9 -11 -5 0 -28 -26 -52 -57
-23 -32 -45 -60 -48 -63 -3 -3 -10 -12 -16 -21 -5 -9 -23 -36 -40 -60 -91
-135 -176 -301 -255 -499 -39 -97 -89 -286 -117 -445 -26 -145 -26 -606 0
-750 60 -333 167 -616 332 -883 42 -67 154 -222 186 -257 75 -80 107 -116 130
-141 15 -16 54 -54 88 -84 34 -30 72 -65 84 -76 24 -23 233 -176 257 -188 8
-4 33 -18 55 -31 250 -151 541 -254 860 -305 184 -29 506 -29 690 1 195 31
431 96 560 154 17 7 59 26 95 41 36 15 76 35 90 44 14 9 36 21 50 28 14 7 43
24 65 37 22 14 48 28 58 32 9 3 17 8 17 12 0 4 15 15 33 26 40 23 180 129 226
169 45 41 218 214 256 257 42 46 147 187 170 226 11 18 22 33 26 33 4 0 9 8
12 18 4 9 17 35 31 57 23 36 119 227 151 300 55 122 114 334 152 540 26 143
26 572 0 730 -20 120 -49 244 -74 315 -8 25 -19 59 -23 75 -15 61 -111 290
-140 335 -9 14 -21 36 -28 50 -7 14 -23 43 -37 65 -14 22 -28 47 -32 55 -19
42 -176 248 -248 324 -22 24 -52 56 -66 72 -15 16 -54 54 -88 84 -34 30 -72
64 -84 76 -12 12 -40 34 -62 49 -22 16 -45 34 -50 39 -6 6 -18 16 -26 21 -9 6
-36 23 -60 40 -171 115 -429 239 -614 294 -270 80 -371 94 -680 97 -247 3
-282 1 -407 -21z m1332 -949 c202 -36 364 -184 424 -385 14 -49 16 -160 16
-1001 0 -837 -2 -953 -16 -1001 -53 -179 -194 -320 -373 -373 -48 -14 -164
-16 -1001 -16 -841 0 -952 2 -1001 16 -202 60 -349 221 -385 424 -19 109 -19
1791 0 1900 39 218 215 396 430 435 105 19 1799 20 1906 1z"/>
<path d="M3800 4035 l0 -235 235 0 235 0 0 235 0 235 -235 0 -235 0 0 -235z"/>
<path d="M3064 3671 c-206 -59 -354 -256 -354 -471 0 -314 305 -553 605 -475
261 68 426 336 360 588 -71 275 -344 435 -611 358z"/>
<path d="M2080 2888 c0 -585 1 -604 21 -648 27 -60 74 -107 134 -136 l50 -24
915 0 c899 0 916 1 960 21 60 27 107 74 136 134 l24 50 0 603 0 602 -206 0
c-192 0 -206 -1 -199 -17 24 -64 45 -189 45 -273 0 -423 -337 -760 -760 -760
-216 0 -399 79 -551 237 -79 82 -138 180 -175 288 -38 113 -46 295 -16 411 11
43 23 87 27 97 7 16 -7 17 -199 17 l-206 0 0 -602z"/>
</g>
</svg>
